<svg width="193" height="103" viewBox="0 0 193 103" fill="none" xmlns="http://www.w3.org/2000/svg">
<g filter="url(#filter0_d_308_370)">
<rect x="10" y="6.14307" width="173" height="73" rx="10" fill="white"/>
</g>
<path d="M49.46 56.1871C47.344 59.1924 44.354 60.6951 40.49 60.6951C36.626 60.6951 33.6207 59.1924 31.474 56.1871C29.358 53.1511 28.3 49.1031 28.3 44.0431C28.3 38.9831 29.358 34.9504 31.474 31.9451C33.6207 28.9091 36.626 27.3911 40.49 27.3911C44.354 27.3911 47.344 28.9091 49.46 31.9451C51.6067 34.9504 52.68 38.9831 52.68 44.0431C52.68 49.1031 51.6067 53.1511 49.46 56.1871ZM33.866 54.0251C35.4607 56.3864 37.6687 57.5671 40.49 57.5671C43.3113 57.5671 45.504 56.3864 47.068 54.0251C48.6627 51.6637 49.46 48.3364 49.46 44.0431C49.46 39.7497 48.6627 36.4224 47.068 34.0611C45.504 31.6997 43.3113 30.5191 40.49 30.5191C37.6687 30.5191 35.4607 31.6997 33.866 34.0611C32.302 36.4224 31.52 39.7497 31.52 44.0431C31.52 48.3364 32.302 51.6637 33.866 54.0251ZM63.2762 27.9431H66.0362V60.1431H62.8162V31.4851L55.5942 33.6471L54.7662 30.8871L63.2762 27.9431ZM88.293 41.0071C87.8023 41.4977 87.2043 41.7431 86.499 41.7431C85.7937 41.7431 85.1957 41.4977 84.705 41.0071C84.2143 40.5164 83.969 39.9184 83.969 39.2131C83.969 38.5077 84.2143 37.9097 84.705 37.4191C85.1957 36.9284 85.7937 36.6831 86.499 36.6831C87.2043 36.6831 87.8023 36.9284 88.293 37.4191C88.7837 37.9097 89.029 38.5077 89.029 39.2131C89.029 39.9184 88.7837 40.5164 88.293 41.0071ZM88.293 59.8671C87.8023 60.3577 87.2043 60.6031 86.499 60.6031C85.7937 60.6031 85.1957 60.3577 84.705 59.8671C84.2143 59.3764 83.969 58.7784 83.969 58.0731C83.969 57.3677 84.2143 56.7697 84.705 56.2791C85.1957 55.7884 85.7937 55.5431 86.499 55.5431C87.2043 55.5431 87.8023 55.7884 88.293 56.2791C88.7837 56.7697 89.029 57.3677 89.029 58.0731C89.029 58.7784 88.7837 59.3764 88.293 59.8671ZM126.771 56.1871C124.655 59.1924 121.665 60.6951 117.801 60.6951C113.937 60.6951 110.931 59.1924 108.785 56.1871C106.669 53.1511 105.611 49.1031 105.611 44.0431C105.611 38.9831 106.669 34.9504 108.785 31.9451C110.931 28.9091 113.937 27.3911 117.801 27.3911C121.665 27.3911 124.655 28.9091 126.771 31.9451C128.917 34.9504 129.991 38.9831 129.991 44.0431C129.991 49.1031 128.917 53.1511 126.771 56.1871ZM111.177 54.0251C112.771 56.3864 114.979 57.5671 117.801 57.5671C120.622 57.5671 122.815 56.3864 124.379 54.0251C125.973 51.6637 126.771 48.3364 126.771 44.0431C126.771 39.7497 125.973 36.4224 124.379 34.0611C122.815 31.6997 120.622 30.5191 117.801 30.5191C114.979 30.5191 112.771 31.6997 111.177 34.0611C109.613 36.4224 108.831 39.7497 108.831 44.0431C108.831 48.3364 109.613 51.6637 111.177 54.0251ZM155.745 56.1871C153.629 59.1924 150.639 60.6951 146.775 60.6951C142.911 60.6951 139.906 59.1924 137.759 56.1871C135.643 53.1511 134.585 49.1031 134.585 44.0431C134.585 38.9831 135.643 34.9504 137.759 31.9451C139.906 28.9091 142.911 27.3911 146.775 27.3911C150.639 27.3911 153.629 28.9091 155.745 31.9451C157.892 34.9504 158.965 38.9831 158.965 44.0431C158.965 49.1031 157.892 53.1511 155.745 56.1871ZM140.151 54.0251C141.746 56.3864 143.954 57.5671 146.775 57.5671C149.596 57.5671 151.789 56.3864 153.353 54.0251C154.948 51.6637 155.745 48.3364 155.745 44.0431C155.745 39.7497 154.948 36.4224 153.353 34.0611C151.789 31.6997 149.596 30.5191 146.775 30.5191C143.954 30.5191 141.746 31.6997 140.151 34.0611C138.587 36.4224 137.805 39.7497 137.805 44.0431C137.805 48.3364 138.587 51.6637 140.151 54.0251Z" fill="#2C2C2C"/>
<path d="M39.744 89.1431H40.96V97.1431H39.904V90.7591L37.104 95.3031H36.976L34.176 90.7591V97.1431H33.12V89.1431H34.336L37.04 93.5271L39.744 89.1431ZM44.2541 95.3031L49.0221 89.1431H49.9181V97.1431H48.8621V90.9831L44.0941 97.1431H43.1981V89.1431H44.2541V95.3031ZM57.8153 92.6311V89.1431H58.8713V97.1431H57.8153V93.6551H53.2073V97.1431H52.1513V89.1431H53.2073V92.6311H57.8153ZM64.2724 95.8471L66.8644 89.1431H67.9844L64.5604 97.8791C64.2404 98.6897 63.7924 99.3137 63.2164 99.7511C62.651 100.199 62.0217 100.396 61.3284 100.343V99.3511C62.2884 99.4684 63.019 98.9137 63.5204 97.6871L63.7284 97.1911L60.1444 89.1431H61.2644L64.2724 95.8471ZM68.3006 89.1431H75.0206V90.1671H72.1886V97.1431H71.1326V90.1671H68.3006V89.1431Z" fill="#4D4D4D"/>
<path d="M117.848 97.3351C116.643 97.3351 115.64 96.9351 114.84 96.1351C114.04 95.3137 113.64 94.3164 113.64 93.1431C113.64 91.9591 114.04 90.9671 114.84 90.1671C115.64 89.3564 116.643 88.9511 117.848 88.9511C118.637 88.9511 119.347 89.1431 119.976 89.5271C120.605 89.9004 121.064 90.4071 121.352 91.0471L120.488 91.5431C120.275 91.0631 119.928 90.6844 119.448 90.4071C118.979 90.1191 118.445 89.9751 117.848 89.9751C116.963 89.9751 116.216 90.2844 115.608 90.9031C115 91.5111 114.696 92.2577 114.696 93.1431C114.696 94.0177 115 94.7697 115.608 95.3991C116.216 96.0071 116.963 96.3111 117.848 96.3111C118.435 96.3111 118.963 96.1724 119.432 95.8951C119.912 95.6177 120.285 95.2337 120.552 94.7431L121.432 95.2551C121.101 95.8951 120.616 96.4017 119.976 96.7751C119.336 97.1484 118.627 97.3351 117.848 97.3351ZM126.566 88.9511C127.761 88.9511 128.715 89.3724 129.43 90.2151C130.166 91.0471 130.534 92.0337 130.534 93.1751C130.534 93.2284 130.523 93.3937 130.502 93.6711H123.478C123.585 94.4711 123.926 95.1111 124.502 95.5911C125.078 96.0711 125.798 96.3111 126.662 96.3111C127.878 96.3111 128.737 95.8577 129.238 94.9511L130.166 95.4951C129.814 96.0711 129.329 96.5244 128.71 96.8551C128.102 97.1751 127.414 97.3351 126.646 97.3351C125.387 97.3351 124.363 96.9404 123.574 96.1511C122.785 95.3617 122.39 94.3591 122.39 93.1431C122.39 91.9377 122.779 90.9404 123.558 90.1511C124.337 89.3511 125.339 88.9511 126.566 88.9511ZM126.566 89.9751C125.734 89.9751 125.035 90.2204 124.47 90.7111C123.915 91.2017 123.585 91.8471 123.478 92.6471H129.446C129.329 91.7937 129.003 91.1377 128.47 90.6791C127.915 90.2097 127.281 89.9751 126.566 89.9751ZM134.39 92.9831L138.678 97.1431H137.27L133.27 93.2871V97.1431H132.214V89.1431H133.27V92.6791L137.078 89.1431H138.518L134.39 92.9831ZM142.976 95.8471L145.568 89.1431H146.688L143.264 97.8791C142.944 98.6897 142.496 99.3137 141.92 99.7511C141.354 100.199 140.725 100.396 140.032 100.343V99.3511C140.992 99.4684 141.722 98.9137 142.224 97.6871L142.432 97.1911L138.848 89.1431H139.968L142.976 95.8471ZM153.628 92.6311V89.1431H154.684V97.1431H153.628V93.6551H149.02V97.1431H147.964V89.1431H149.02V92.6311H153.628ZM163.637 89.1431V96.1191H164.757V99.2871H163.701V97.1431H157.173V99.2871H156.117V96.1191H157.093C157.637 95.3937 157.909 94.3857 157.909 93.0951V89.1431H163.637ZM158.373 96.1191H162.581V90.1671H158.965V93.0951C158.965 94.3324 158.768 95.3404 158.373 96.1191Z" fill="#4D4D4D"/>
<defs>
<filter id="filter0_d_308_370" x="0" y="0.143066" width="193" height="93" filterUnits="userSpaceOnUse" color-interpolation-filters="sRGB">
<feFlood flood-opacity="0" result="BackgroundImageFix"/>
<feColorMatrix in="SourceAlpha" type="matrix" values="0 0 0 0 0 0 0 0 0 0 0 0 0 0 0 0 0 0 127 0" result="hardAlpha"/>
<feOffset dy="4"/>
<feGaussianBlur stdDeviation="5"/>
<feComposite in2="hardAlpha" operator="out"/>
<feColorMatrix type="matrix" values="0 0 0 0 0.3375 0 0 0 0 0.3375 0 0 0 0 0.3375 0 0 0 0.16 0"/>
<feBlend mode="normal" in2="BackgroundImageFix" result="effect1_dropShadow_308_370"/>
<feBlend mode="normal" in="SourceGraphic" in2="effect1_dropShadow_308_370" result="shape"/>
</filter>
</defs>
</svg>
